<svg xmlns="http://www.w3.org/2000/svg" width="16" height="16" viewBox="0 0 16 16" aria-hidden="true" focusable="false">
  <g fill="none" stroke="#2e3436" stroke-width="2" stroke-linecap="round" stroke-linejoin="round">
    <rect id="chip-body" x="3.5" y="3.5" width="9" height="9" rx="2"/>
    <path id="chip-pins" d="M5.5 1v2.5M8 1v2.5M10.5 1v2.5M5.5 12.5V15M8 12.5V15M10.5 12.5V15M1 5.5h2.5M1 8h2.5M1 10.5h2.5M12.5 5.5H15M12.5 8H15M12.5 10.5H15"/>
  </g>
  <path id="status-detected" class="warning" fill="#ff7800" fill-rule="evenodd" stroke="#2e3436" stroke-width="1" stroke-linejoin="round" paint-order="stroke fill" d="M8 4.5 11.5 8 8 11.5 4.5 8 8 4.5Zm0 2L6.5 8 8 9.5 9.5 8 8 6.5Z"/>
</svg>
