<svg xmlns="http://www.w3.org/2000/svg" width="16" height="16" viewBox="0 0 16 16" aria-hidden="true" focusable="false">
  <g fill="none" stroke="#33d17a" stroke-width="2" stroke-linecap="round" stroke-linejoin="round">
    <rect id="chip-body" x="3.5" y="3.5" width="9" height="9" rx="2"/>
    <path id="chip-pins" d="M5.5 1v2.5M8 1v2.5M10.5 1v2.5M5.5 12.5V15M8 12.5V15M10.5 12.5V15M1 5.5h2.5M1 8h2.5M1 10.5h2.5M12.5 5.5H15M12.5 8H15M12.5 10.5H15"/>
  </g>
  <g fill="none" stroke="#33d17a" stroke-width="1.5" stroke-linecap="round" stroke-linejoin="round">
    <path id="graph-links" d="M6 6l2 2 2-2M6 10l2-2 2 2"/>
  </g>
  <g fill="#33d17a">
    <circle id="graph-node-north-west" cx="6" cy="6" r="1"/>
    <circle id="graph-node-north-east" cx="10" cy="6" r="1"/>
    <circle id="graph-node-south-west" cx="6" cy="10" r="1"/>
    <circle id="graph-node-south-east" cx="10" cy="10" r="1"/>
    <path id="status-online" class="success" fill="#33d17a" stroke="#33d17a" stroke-width="1" paint-order="stroke fill" d="M8 6.4 9.6 8 8 9.6 6.4 8Z"/>
  </g>
</svg>
